<svg width="17" height="17" viewBox="0 0 17 17" fill="none" xmlns="http://www.w3.org/2000/svg">
<g id="Social icon" clip-path="url(#clip0_15_1676)">
<path id="Vector" d="M16.1609 8.6958C16.1609 8.11799 16.1159 7.53706 16.02 6.96863H8.32318V10.2418H12.7308C12.5479 11.2975 11.9602 12.2313 11.0997 12.8248V14.9486H13.7292C15.2734 13.4682 16.1609 11.2819 16.1609 8.6958Z" fill="#4285F4"/>
<path id="Vector_2" d="M8.3232 17.0006C10.524 17.0006 12.38 16.2479 13.7322 14.9486L11.1027 12.8248C10.3711 13.3432 9.42659 13.6368 8.3262 13.6368C6.19737 13.6368 4.39237 12.1408 3.74472 10.1294H1.03122V12.3188C2.41646 15.1891 5.2379 17.0006 8.3232 17.0006Z" fill="#34A853"/>
<path id="Vector_3" d="M3.74173 10.1294C3.39992 9.07369 3.39992 7.93057 3.74173 6.8749V4.68549H1.03123C-0.126132 7.08729 -0.126132 9.91697 1.03123 12.3188L3.74173 10.1294Z" fill="#FBBC04"/>
<path id="Vector_4" d="M8.3232 3.36434C9.48656 3.3456 10.6109 3.8016 11.4535 4.63864L13.7832 2.21185C12.308 0.768899 10.3501 -0.0244134 8.3232 0.000572805C5.2379 0.000572805 2.41646 1.81207 1.03122 4.68549L3.74173 6.87491C4.38637 4.86039 6.19437 3.36434 8.3232 3.36434Z" fill="#EA4335"/>
</g>
<defs>
<clipPath id="clip0_15_1676">
<rect width="16.32" height="17" fill="white"/>
</clipPath>
</defs>
</svg>
